# xmcd
#
# Track frame offsets:
#	150
#	9022
#	24725
#	40367
#	56197
#	75542
#	82145
#	94870
#	107350
#	124842
#	131050
#	146375
#	164837
#	177442
#
# Disc length: 2418 seconds
#
# Revision: 1
# Processed by: cddbd v1.4PL0 Copyright (c) Steve Scherf et al.
# Submitted via: EasyCDDAExtractor 6.2.0.3
#
DISCID=bb09700e
DTITLE=Sistema Bruto - A Porteira Está Aberta
DYEAR=2003
DGENRE=Sertanejo
TTITLE0=Chico Mineiro
TTITLE1=Sertanejo
TTITLE2=Travessia Do Araguaia
TTITLE3=Campeão Do Pialo
TTITLE4=Couro De Boi
TTITLE5=Caminheiro
TTITLE6=Mamãe Querida
TTITLE7=Mão De Carvão
TTITLE8=Meu Sertão
TTITLE9=Eu, A Viola e Deus
TTITLE10=Goianeiro
TTITLE11=Operário - Vida - Viola
TTITLE12=Caboclo Ventania
TTITLE13=Estrada Da Vida
EXTD=
EXTT0=
EXTT1=
EXTT2=
EXTT3=
EXTT4=
EXTT5=
EXTT6=
EXTT7=
EXTT8=
EXTT9=
EXTT10=
EXTT11=
EXTT12=
EXTT13=
PLAYORDER=
